<?xml version="1.0" standalone="no"?><!DOCTYPE svg PUBLIC "-//W3C//DTD SVG 1.1//EN" "http://www.w3.org/Graphics/SVG/1.1/DTD/svg11.dtd"><svg t="1736926116993" class="icon" viewBox="0 0 1024 1024" version="1.1" xmlns="http://www.w3.org/2000/svg" p-id="4133" width="40" height="40" xmlns:xlink="http://www.w3.org/1999/xlink"><path d="M853.333333 384V213.333333H170.666667v170.666667h682.666666z m0 85.333333H170.666667v341.333334h682.666666v-341.333334zM128 128h768a42.666667 42.666667 0 0 1 42.666667 42.666667v682.666666a42.666667 42.666667 0 0 1-42.666667 42.666667H128a42.666667 42.666667 0 0 1-42.666667-42.666667V170.666667a42.666667 42.666667 0 0 1 42.666667-42.666667z m85.333333 384h128v213.333333H213.333333v-213.333333z m0-256h85.333334v85.333333H213.333333V256z m170.666667 0h85.333333v85.333333H384V256z" fill="#357D6E" p-id="4134"></path></svg>